<svg width="783" height="562" viewBox="0 0 783 562" fill="none" xmlns="http://www.w3.org/2000/svg">
<g clip-path="url(#clip0)">
<path d="M615.934 64.3578C507.807 -18.7718 357.379 -22.1686 247.634 58.8275C189.621 101.645 144.645 167.152 152.828 266.894C155.72 302.174 163.769 331.117 175.513 354.81C223.078 450.86 418.44 447.161 429.29 447.147C436.319 447.14 443.348 447.297 450.377 447.618C474.999 448.745 499.49 451.833 523.618 456.853C558.018 464.005 601.812 467.598 640.941 454.053C647.589 451.763 654.048 448.961 660.262 445.674C681.765 434.276 705.836 423.384 719.908 396.35C730.484 376.061 738.189 350.62 741.897 318.933C755.392 203.534 687.957 119.731 615.934 64.3578Z" fill="#F2F2F2"/>
<path d="M450.85 477.947C621.61 477.947 760.038 464.986 760.038 448.998C760.038 433.01 621.61 420.05 450.85 420.05C280.09 420.05 141.662 433.01 141.662 448.998C141.662 464.986 280.09 477.947 450.85 477.947Z" fill="#3F3D56"/>
<path opacity="0.1" d="M435.746 462.586C594.566 462.586 723.314 456.503 723.314 448.998C723.314 441.494 594.566 435.41 435.746 435.41C276.926 435.41 148.177 441.494 148.177 448.998C148.177 456.503 276.926 462.586 435.746 462.586Z" fill="black"/>
<path d="M594.833 61.2973V93.7747H552.442V447.965H640.911V107.257V93.7747V61.2973H594.833Z" fill="#575A89"/>
<path d="M361.373 279.448V223.686H307.308V279.448H287.034V448.577H381.032V279.448H361.373Z" fill="#575A89"/>
<path d="M370.588 370.141H297.478V449.19H370.588V370.141Z" fill="#3F3D56"/>
<path opacity="0.1" d="M309.151 370.141H297.478V449.19H309.151V370.141Z" fill="black"/>
<path d="M521.109 43.5263V62.5226H412.979V43.5263H381.032V449.19H552.442V43.5263H521.109Z" fill="#3F3D56"/>
<path opacity="0.1" d="M545.069 43.5266H521.108V62.5229H545.069V43.5266Z" fill="black"/>
<path opacity="0.1" d="M404.993 43.5266H381.032V449.19H404.993V43.5266Z" fill="black"/>
<path d="M258.773 159.343V144.023H242.8V159.343H213.924V449.19H287.034V159.343H258.773Z" fill="#3F3D56"/>
<path opacity="0.1" d="M251.401 144.023H242.799V159.343H251.401V144.023Z" fill="black"/>
<path opacity="0.1" d="M222.525 159.343H213.924V449.19H222.525V159.343Z" fill="black"/>
<path opacity="0.1" d="M545.069 199.787H521.108V449.19H545.069V199.787Z" fill="black"/>
<path opacity="0.1" d="M287.034 159.343H264.917V212.655H287.034V159.343Z" fill="black"/>
<path d="M441.855 95.0005H407.45V109.707H441.855V95.0005Z" fill="#FF6584"/>
<path d="M514.965 246.358H480.56V261.065H514.965V246.358Z" fill="#FF6584"/>
<path d="M441.855 352.37H407.45V367.077H441.855V352.37Z" fill="#FF6584"/>
<path d="M267.989 225.524H233.584V240.23H267.989V225.524Z" fill="#FF6584"/>
<path d="M351.543 378.72H317.138V393.427H351.543V378.72Z" fill="#FF6584"/>
<path opacity="0.1" d="M363.83 292.317H304.851V316.828H363.83V292.317Z" fill="black"/>
<path opacity="0.1" d="M621.865 121.963H562.885V146.474H621.865V121.963Z" fill="black"/>
<path opacity="0.1" d="M621.865 174.05H562.885V198.561H621.865V174.05Z" fill="black"/>
<path opacity="0.1" d="M621.865 226.136H562.885V250.648H621.865V226.136Z" fill="black"/>
<path opacity="0.1" d="M621.865 278.223H562.885V302.734H621.865V278.223Z" fill="black"/>
<path opacity="0.1" d="M621.865 330.31H562.885V354.821H621.865V330.31Z" fill="black"/>
<path opacity="0.1" d="M621.865 382.396H562.885V406.908H621.865V382.396Z" fill="black"/>
<path d="M661.185 232.877V166.083H618.178V232.877H602.819V449.19H675.93V232.877H661.185Z" fill="#3F3D56"/>
<path opacity="0.1" d="M631.695 166.084H618.179V232.877H631.695V166.084Z" fill="black"/>
<path opacity="0.1" d="M616.336 232.877H602.819V449.19H616.336V232.877Z" fill="black"/>
<path opacity="0.1" d="M675.929 341.34H639.682V362.787H675.929V341.34Z" fill="black"/>
<path d="M675.315 309.475H640.91V324.182H675.315V309.475Z" fill="#FF6584"/>
<path d="M783 324.322C783 378.916 750.461 397.978 710.322 397.978C670.183 397.978 637.644 378.916 637.644 324.322C637.644 269.729 710.322 200.277 710.322 200.277C710.322 200.277 783 269.729 783 324.322Z" fill="#6C63FF"/>
<path d="M707.675 389.627L708.419 343.937L739.396 287.412L708.535 336.769L708.87 316.225L730.219 275.33L708.958 310.789L709.561 273.84L732.422 241.281L709.655 268.029L710.031 200.276L707.668 289.968L707.862 286.268L684.619 250.782L707.49 293.372L705.324 334.638L705.259 333.542L678.464 296.198L705.179 337.412L704.907 342.573L704.858 342.65L704.881 343.073L699.387 447.77H706.728L707.609 393.692L734.257 352.58L707.675 389.627Z" fill="#3F3D56"/>
<path d="M250.348 324.913C250.348 379.507 217.809 398.569 177.67 398.569C137.532 398.569 104.993 379.507 104.993 324.913C104.993 270.32 177.67 200.868 177.67 200.868C177.67 200.868 250.348 270.319 250.348 324.913Z" fill="#6C63FF"/>
<path d="M175.023 390.218L175.767 344.528L206.744 288.003L175.884 337.36L176.218 316.816L197.567 275.921L176.307 311.379V311.38L176.909 274.43L199.77 241.872L177.004 268.62L177.38 200.867L175.016 290.559L175.21 286.859L151.967 251.373L174.837 293.962L172.672 335.228L172.608 334.133L145.812 296.789L172.526 338.003L172.256 343.163L172.207 343.241L172.229 343.664L166.735 448.36H174.076L174.956 394.283L201.605 353.171L175.023 390.218Z" fill="#3F3D56"/>
</g>
<defs>
<clipPath id="clip0">
<rect width="941" height="562" fill="white" transform="translate(-158)"/>
</clipPath>
</defs>
</svg>
